<svg xmlns="http://www.w3.org/2000/svg" xml:space="preserve" width="128" height="128" data-id="lg_BIZ6boj51UZnEgTl2F" data-version="1"><g data-padding="20"><g transform="translate(50.851 50.022)scale(.23199)"><path fill="#f9029a" stroke="transparent" d="M29.77 85.978q0 9.28-2.35 16.7t-6.21 13.09q-3.86 5.66-9.05 9.64-5.18 3.98-10.73 6.52-5.55 2.53-11.28 3.74-5.72 1.2-10.79 1.2h-120.97v-31.36h120.97q9.05 0 14.05-5.3 5.01-5.31 5.01-14.23 0-4.35-1.33-7.96-1.33-3.62-3.8-6.28-2.47-2.65-6.03-4.1-3.56-1.44-7.9-1.44h-72.12q-7.6 0-16.4-2.72-8.81-2.71-16.35-8.74-7.53-6.03-12.54-15.8-5-9.77-5-23.88t5-23.82q5.01-9.71 12.54-15.8 7.54-6.09 16.35-8.8 8.8-2.72 16.4-2.72H13.97v31.36H-92.76q-8.93 0-13.93 5.43-5.01 5.43-5.01 14.35 0 9.05 5.01 14.29 5 5.25 13.93 5.25h72.36q5.07.12 10.73 1.39 5.67 1.26 11.28 3.91 5.61 2.66 10.67 6.7 5.07 4.04 8.99 9.71t6.21 13.02q2.29 7.36 2.29 16.65m37.86 35.09q0 3.26-1.27 6.09-1.26 2.84-3.37 4.95t-4.95 3.31q-2.83 1.21-5.97 1.21-3.26 0-6.09-1.21-2.83-1.2-4.94-3.31t-3.32-4.95q-1.21-2.83-1.21-6.09 0-3.13 1.21-5.97 1.21-2.83 3.32-4.94t4.94-3.38 6.09-1.27q3.14 0 5.97 1.27 2.84 1.27 4.95 3.38t3.37 4.94q1.27 2.84 1.27 5.97m109.49-70.67 88.88 86.47h-44.5l-70.56-70.67h-22.07v-31.6h22.07l70.56-70.68H266Zm-60.79-86.48v172.95H84.97v-172.95Z"/><rect width="422.88" height="279.11" x="-555.76" y="-438.522" fill="none" rx="0" ry="0" transform="translate(401 359.22)"/></g><path fill="transparent" stroke="transparent" stroke-width=".243" d="M12.5 30.032h103v67.936h-103z"/></g></svg>